<mxfile host="app.diagrams.net" agent="Mozilla/5.0 (Windows NT 10.0; Win64; x64) AppleWebKit/537.36 (KHTML, like Gecko) Chrome/128.0.0.0 Safari/537.36" version="24.7.10">
  <diagram name="Page-1" id="jgW-yLE3rwJ7l7WNvmEm">
    <mxGraphModel dx="880" dy="506" grid="1" gridSize="10" guides="1" tooltips="1" connect="1" arrows="1" fold="1" page="1" pageScale="1" pageWidth="850" pageHeight="1100" math="0" shadow="0">
      <root>
        <mxCell id="0" />
        <mxCell id="1" parent="0" />
        <mxCell id="7eaz7EFyOXFihNtyiCtr-1" value="&lt;b&gt;CEO/Founder&lt;/b&gt;" style="rounded=0;whiteSpace=wrap;html=1;" vertex="1" parent="1">
          <mxGeometry x="350" y="40" width="160" height="40" as="geometry" />
        </mxCell>
        <mxCell id="7eaz7EFyOXFihNtyiCtr-3" value="&lt;b&gt;Admin&lt;/b&gt;" style="rounded=0;whiteSpace=wrap;html=1;" vertex="1" parent="1">
          <mxGeometry x="371" y="107" width="120" height="40" as="geometry" />
        </mxCell>
        <mxCell id="7eaz7EFyOXFihNtyiCtr-4" value="&lt;b&gt;Marketing Director&lt;/b&gt;" style="rounded=0;whiteSpace=wrap;html=1;" vertex="1" parent="1">
          <mxGeometry x="371" y="193" width="139" height="40" as="geometry" />
        </mxCell>
        <mxCell id="7eaz7EFyOXFihNtyiCtr-5" value="&lt;b&gt;Support&lt;/b&gt;" style="rounded=0;whiteSpace=wrap;html=1;" vertex="1" parent="1">
          <mxGeometry x="550" y="193" width="100" height="40" as="geometry" />
        </mxCell>
        <mxCell id="7eaz7EFyOXFihNtyiCtr-6" value="&lt;b&gt;Technical Director&lt;/b&gt;" style="rounded=0;whiteSpace=wrap;html=1;" vertex="1" parent="1">
          <mxGeometry x="160" y="193" width="139" height="40" as="geometry" />
        </mxCell>
        <mxCell id="7eaz7EFyOXFihNtyiCtr-7" value="&lt;b&gt;Developer&lt;/b&gt;" style="rounded=0;whiteSpace=wrap;html=1;" vertex="1" parent="1">
          <mxGeometry x="178" y="250" width="110" height="40" as="geometry" />
        </mxCell>
        <mxCell id="7eaz7EFyOXFihNtyiCtr-8" value="&lt;b&gt;Senior Programmer&lt;/b&gt;" style="rounded=0;whiteSpace=wrap;html=1;" vertex="1" parent="1">
          <mxGeometry x="163" y="309" width="139" height="40" as="geometry" />
        </mxCell>
        <mxCell id="7eaz7EFyOXFihNtyiCtr-9" value="&lt;b&gt;Intern&lt;/b&gt;" style="rounded=0;whiteSpace=wrap;html=1;" vertex="1" parent="1">
          <mxGeometry x="177.5" y="360" width="110" height="40" as="geometry" />
        </mxCell>
        <mxCell id="7eaz7EFyOXFihNtyiCtr-10" value="&lt;b&gt;Marketing Officer&lt;/b&gt;" style="rounded=0;whiteSpace=wrap;html=1;" vertex="1" parent="1">
          <mxGeometry x="371" y="252" width="139" height="40" as="geometry" />
        </mxCell>
        <mxCell id="7eaz7EFyOXFihNtyiCtr-11" value="&lt;b&gt;Internal Support&lt;/b&gt;" style="rounded=0;whiteSpace=wrap;html=1;" vertex="1" parent="1">
          <mxGeometry x="550" y="252" width="100" height="40" as="geometry" />
        </mxCell>
        <mxCell id="7eaz7EFyOXFihNtyiCtr-12" value="&lt;b&gt;External Support&lt;/b&gt;" style="rounded=0;whiteSpace=wrap;html=1;" vertex="1" parent="1">
          <mxGeometry x="700" y="252" width="100" height="40" as="geometry" />
        </mxCell>
        <mxCell id="7eaz7EFyOXFihNtyiCtr-13" value="" style="endArrow=none;html=1;rounded=0;entryX=0.544;entryY=1.025;entryDx=0;entryDy=0;entryPerimeter=0;" edge="1" parent="1" target="7eaz7EFyOXFihNtyiCtr-1">
          <mxGeometry width="50" height="50" relative="1" as="geometry">
            <mxPoint x="437" y="110" as="sourcePoint" />
            <mxPoint x="450" y="240" as="targetPoint" />
          </mxGeometry>
        </mxCell>
        <mxCell id="7eaz7EFyOXFihNtyiCtr-14" value="" style="endArrow=none;html=1;rounded=0;entryX=0.558;entryY=0.95;entryDx=0;entryDy=0;entryPerimeter=0;" edge="1" parent="1">
          <mxGeometry width="50" height="50" relative="1" as="geometry">
            <mxPoint x="437.7529411764706" y="193" as="sourcePoint" />
            <mxPoint x="435.96000000000004" y="145" as="targetPoint" />
          </mxGeometry>
        </mxCell>
        <mxCell id="7eaz7EFyOXFihNtyiCtr-17" value="" style="endArrow=none;html=1;rounded=0;entryX=0.6;entryY=-0.025;entryDx=0;entryDy=0;entryPerimeter=0;exitX=0.5;exitY=0;exitDx=0;exitDy=0;" edge="1" parent="1" source="7eaz7EFyOXFihNtyiCtr-6" target="7eaz7EFyOXFihNtyiCtr-5">
          <mxGeometry width="50" height="50" relative="1" as="geometry">
            <mxPoint x="400" y="290" as="sourcePoint" />
            <mxPoint x="450" y="240" as="targetPoint" />
            <Array as="points">
              <mxPoint x="230" y="160" />
              <mxPoint x="610" y="160" />
            </Array>
          </mxGeometry>
        </mxCell>
        <mxCell id="7eaz7EFyOXFihNtyiCtr-18" value="" style="endArrow=none;html=1;rounded=0;exitX=0.5;exitY=1;exitDx=0;exitDy=0;entryX=0.5;entryY=0;entryDx=0;entryDy=0;" edge="1" parent="1" source="7eaz7EFyOXFihNtyiCtr-8" target="7eaz7EFyOXFihNtyiCtr-9">
          <mxGeometry width="50" height="50" relative="1" as="geometry">
            <mxPoint x="400" y="290" as="sourcePoint" />
            <mxPoint x="450" y="240" as="targetPoint" />
          </mxGeometry>
        </mxCell>
        <mxCell id="7eaz7EFyOXFihNtyiCtr-19" value="" style="endArrow=none;html=1;rounded=0;exitX=0.5;exitY=1;exitDx=0;exitDy=0;entryX=0.5;entryY=0;entryDx=0;entryDy=0;" edge="1" parent="1" source="7eaz7EFyOXFihNtyiCtr-7" target="7eaz7EFyOXFihNtyiCtr-8">
          <mxGeometry width="50" height="50" relative="1" as="geometry">
            <mxPoint x="400" y="290" as="sourcePoint" />
            <mxPoint x="450" y="240" as="targetPoint" />
          </mxGeometry>
        </mxCell>
        <mxCell id="7eaz7EFyOXFihNtyiCtr-20" value="" style="endArrow=none;html=1;rounded=0;exitX=0.5;exitY=1;exitDx=0;exitDy=0;" edge="1" parent="1" source="7eaz7EFyOXFihNtyiCtr-6">
          <mxGeometry width="50" height="50" relative="1" as="geometry">
            <mxPoint x="400" y="290" as="sourcePoint" />
            <mxPoint x="230" y="250" as="targetPoint" />
          </mxGeometry>
        </mxCell>
        <mxCell id="7eaz7EFyOXFihNtyiCtr-21" value="" style="endArrow=none;html=1;rounded=0;entryX=0.5;entryY=1;entryDx=0;entryDy=0;" edge="1" parent="1" source="7eaz7EFyOXFihNtyiCtr-10" target="7eaz7EFyOXFihNtyiCtr-4">
          <mxGeometry width="50" height="50" relative="1" as="geometry">
            <mxPoint x="400" y="290" as="sourcePoint" />
            <mxPoint x="450" y="240" as="targetPoint" />
          </mxGeometry>
        </mxCell>
        <mxCell id="7eaz7EFyOXFihNtyiCtr-22" value="" style="endArrow=none;html=1;rounded=0;entryX=0.57;entryY=0.95;entryDx=0;entryDy=0;entryPerimeter=0;exitX=0.57;exitY=0.075;exitDx=0;exitDy=0;exitPerimeter=0;" edge="1" parent="1" source="7eaz7EFyOXFihNtyiCtr-11" target="7eaz7EFyOXFihNtyiCtr-5">
          <mxGeometry width="50" height="50" relative="1" as="geometry">
            <mxPoint x="400" y="290" as="sourcePoint" />
            <mxPoint x="450" y="240" as="targetPoint" />
          </mxGeometry>
        </mxCell>
        <mxCell id="7eaz7EFyOXFihNtyiCtr-23" value="" style="endArrow=none;html=1;rounded=0;entryX=0.5;entryY=0;entryDx=0;entryDy=0;" edge="1" parent="1">
          <mxGeometry width="50" height="50" relative="1" as="geometry">
            <mxPoint x="607" y="240" as="sourcePoint" />
            <mxPoint x="747" y="252" as="targetPoint" />
            <Array as="points">
              <mxPoint x="747" y="240" />
            </Array>
          </mxGeometry>
        </mxCell>
      </root>
    </mxGraphModel>
  </diagram>
</mxfile>
